Coordinates
version=1
nRows=16
nColumns=40
inDegrees=yes

Units are S.I. units (second, meters, Newtons, ...)
Angles are in degrees.

endheader
time	pelvis_tilt	pelvis_list	pelvis_rotation	pelvis_tx	pelvis_ty	pelvis_tz	hip_flexion_r	hip_adduction_r	hip_rotation_r	knee_angle_r	knee_angle_r_beta	ankle_angle_r	subtalar_angle_r	mtp_angle_r	hip_flexion_l	hip_adduction_l	hip_rotation_l	knee_angle_l	knee_angle_l_beta	ankle_angle_l	subtalar_angle_l	mtp_angle_l	lumbar_extension	lumbar_bending	lumbar_rotation	arm_flex_r	arm_add_r	arm_rot_r	elbow_flex_r	pro_sup_r	wrist_flex_r	wrist_dev_r	arm_flex_l	arm_add_l	arm_rot_l	elbow_flex_l	pro_sup_l	wrist_flex_l	wrist_dev_l
     52.78000000	     -1.04537231	     -6.04758001	     -3.02940086	      0.93741690	      0.92612585	      0.52937274	     12.34317483	      7.30563852	     -9.50493008	     21.75656431	     21.75656431	     12.35183995	     -6.34780584	     -2.72400642	     23.57547250	    -15.24209453	     -1.31512953	     64.96112342	     64.96112342	     15.17314407	    -19.65852528	     23.56367324	    -11.13921551	      9.02991191	      0.11118907	      4.39081225	    -16.55408834	    -16.83556484	     35.50876601	     45.88871193	      0.00000000	      0.00000000	     15.39154317	    -12.56034380	     -0.20853070	     54.48454212	     46.49556560	      0.00000000	      0.00000000
     52.79957143	     -0.90125368	     -5.96916802	     -2.52629477	      0.93602133	      0.92526184	      0.53132713	     12.30959956	      7.23170117	     -9.86487177	     22.58509659	     22.58509659	     12.90508824	     -6.71944205	     -2.92745001	     24.86998022	    -15.19824512	     -1.32599765	     64.02345350	     64.02345350	     15.76321573	    -19.65044704	     23.87397688	    -11.24548462	      8.55892740	     -0.18660039	      7.08628123	    -16.02292352	    -16.56793104	     37.08129338	     45.82953926	      0.00000000	      0.00000000	     12.94703457	    -12.08408098	      0.51004967	     51.50307709	     46.38943627	      0.00000000	      0.00000000
     52.81914286	     -0.71941965	     -5.94982853	     -1.99257784	      0.93460314	      0.92447875	      0.53325132	     12.08866217	      7.23293099	    -10.26707164	     23.15693026	     23.15693026	     13.46421949	     -6.92661645	     -2.91526107	     26.03971445	    -15.17389081	     -1.33041829	     62.79780432	     62.79780432	     16.15554160	    -19.64641810	     23.91187067	    -11.39711885	      8.14817920	     -0.44491731	      9.79647456	    -15.51736967	    -15.94415046	     38.87827146	     45.74282555	      0.00000000	      0.00000000	     10.79399524	    -11.52517570	      1.34746838	     47.62714106	     46.27165423	      0.00000000	      0.00000000
     52.83871429	     -0.56995605	     -5.99009382	     -1.51801453	      0.93303464	      0.92361849	      0.53512491	     11.92765822	      7.29179634	    -10.69149220	     23.79473867	     23.79473867	     14.31114484	     -6.89530219	     -2.09327575	     27.14005528	    -15.20883803	     -1.39893643	     61.32373475	     61.32373475	     16.31591525	    -19.63154391	     23.66334699	    -11.48691485	      7.83189829	      0.44849649	     11.54477265	    -16.02899572	    -13.40876185	     41.25254005	     45.54192281	      0.00000000	      0.00000000	     10.50782708	    -10.26037155	      2.84798190	     40.27487944	     46.12580207	      0.00000000	      0.00000000
     52.85828571	     -0.43650951	     -6.02744669	     -0.99841186	      0.93133228	      0.92261246	      0.53679609	     11.80375193	      7.35456038	    -11.06865860	     24.42616998	     24.42616998	     15.05968727	     -7.05237308	     -1.56068916	     28.17881722	    -15.15239749	     -1.37030318	     59.64199853	     59.64199853	     16.30359565	    -19.61252296	     23.30662008	    -11.65492418	      7.50790797	      0.60916827	     13.79455391	    -16.10671055	    -11.70872693	     44.11129796	     45.38565983	      0.00000000	      0.00000000	      8.88018120	     -9.64862972	      3.97176548	     35.95265650	     46.01075929	      0.00000000	      0.00000000
     52.87785714	     -0.32861502	     -6.05475160	     -0.50044768	      0.92955743	      0.92159271	      0.53822731	     11.68097342	      7.40827745	    -11.38864716	     24.96361583	     24.96361583	     15.54250621	     -7.35105246	     -1.64325376	     29.11833099	    -15.03145516	     -1.31914772	     57.74895295	     57.74895295	     16.22890787	    -19.58670174	     23.19759147	    -11.82714592	      7.18568142	      0.42029301	     16.75358524	    -15.64505438	    -11.43989174	     46.12228945	     45.31866496	      0.00000000	      0.00000000	      6.41766185	     -9.37390240	      4.45730510	     33.69974374	     45.91685027	      0.00000000	      0.00000000
     52.89742857	     -0.33763668	     -6.17992301	     -0.00067475	      0.92769641	      0.92055647	      0.53935830	     11.61654969	      7.53964644	    -11.84557234	     25.35062200	     25.35062200	     16.05989058	     -7.42166863	     -1.43756214	     30.05755420	    -14.96322977	     -1.19850013	     55.62335977	     55.62335977	     15.80982034	    -19.56296638	     22.59364641	    -11.83418841	      6.98713341	      0.40542020	     19.49924941	    -15.54905862	    -10.26880270	     48.26553379	     45.21241872	      0.00000000	      0.00000000	      4.49121071	     -9.00267457	      5.24589303	     30.55063182	     45.78999969	      0.00000000	      0.00000000
     52.91700000	     -0.27133511	     -6.14896582	      0.46344129	      0.92587274	      0.91981448	      0.54010051	     11.45516986	      7.50855091	    -12.11048191	     25.70879382	     25.70879382	     16.50170916	     -7.58709830	     -1.40581001	     30.71492882	    -14.63979165	     -1.04137137	     53.29863497	     53.29863497	     15.40979099	    -19.51578975	     22.35027907	    -11.95233877	      6.66409317	      0.50548013	     22.35896044	    -15.38627441	     -9.68520083	     50.35864236	     45.13132782	      0.00000000	      0.00000000	      2.25007955	     -8.74679047	      5.72507289	     28.57054133	     45.68801779	      0.00000000	      0.00000000
     52.93657143	     -0.30548153	     -6.21471350	      0.91336456	      0.92404066	      0.91920032	      0.54047416	     11.31180611	      7.52452153	    -12.58263706	     25.90907115	     25.90907115	     17.06774459	     -7.35676486	     -0.76196527	     31.31043963	    -14.40403649	     -0.85377384	     50.75161174	     50.75161174	     14.39575686	    -19.45896643	     20.70472535	    -11.92594021	      6.49581885	      0.87096762	     24.70946040	    -16.21048096	     -6.75448705	     53.40437215	     44.94516066	      0.00000000	      0.00000000	      0.42550977	     -8.51817778	      7.06026931	     26.06297840	     45.45626533	      0.00000000	      0.00000000
     52.95614286	     -0.37398456	     -6.21087120	      1.32476181	      0.92233984	      0.91888133	      0.54049490	     11.07883131	      7.50042072	    -12.88855607	     25.86319669	     25.86319669	     17.37642870	     -7.30818788	     -0.76408729	     31.78536515	    -13.99734886	     -0.53187945	     48.14805891	     48.14805891	     13.84404109	    -19.37529738	     20.61556530	    -11.85714156	      6.25459344	      1.00806518	     27.58042829	    -16.03902791	     -6.56547959	     55.49955991	     44.88627734	      0.00000000	      0.00000000	     -1.95364427	     -8.41986105	      7.39964350	     25.06010483	     45.35757168	      0.00000000	      0.00000000
     52.97571429	     -0.50352888	     -6.22429154	      1.74042024	      0.92075165	      0.91878234	      0.54009937	     10.81171816	      7.42410319	    -13.41780150	     25.67133124	     25.67133124	     17.70005020	     -6.83586841	     -0.64522239	     32.12641167	    -13.59214767	     -0.19431374	     45.37180585	     45.37180585	     12.62158811	    -19.26148164	     18.83304905	    -11.72165325	      6.06883653	      1.17571455	     30.15082023	    -16.44133113	     -4.98224876	     58.40887932	     44.76822652	      0.00000000	      0.00000000	     -4.56416752	     -8.51755947	      8.26454252	     25.00898101	     45.14977909	      0.00000000	      0.00000000
     52.99528571	     -0.59658597	     -6.17982759	      2.12528807	      0.91929041	      0.91912213	      0.53936769	     10.36258807	      7.31930508	    -13.82948182	     25.22340270	     25.22340270	     17.87732708	     -6.41176973	     -0.61987864	     32.23681549	    -13.10464694	      0.18418276	     42.54173148	     42.54173148	     11.40013417	    -19.10065114	     17.17245032	    -11.62211399	      5.82584985	      1.44727796	     32.80117100	    -16.87813381	     -3.74847790	     60.95223436	     44.69534464	      0.00000000	      0.00000000	     -7.13394424	     -8.70477103	      9.38759378	     25.36891584	     44.90723062	      0.00000000	      0.00000000
     53.01485714	     -0.72987991	     -6.14376544	      2.52943567	      0.91797637	      0.91977212	      0.53825976	      9.79809370	      7.23193568	    -14.27391249	     24.49041599	     24.49041599	     17.94811973	     -5.92141656	     -0.62909500	     32.30483404	    -12.56153654	      0.74494201	     39.85211667	     39.85211667	     10.66456324	    -18.80928253	     16.84518625	    -11.43369401	      5.60425452	      1.62977257	     35.53698014	    -16.89258055	     -3.55243555	     62.96677217	     44.64695236	      0.00000000	      0.00000000	     -9.36444685	     -8.68966744	      9.77036442	     24.99780365	     44.80547848	      0.00000000	      0.00000000
     53.03442857	     -0.88860332	     -6.11925346	      2.93843544	      0.91682440	      0.92054854	      0.53686474	      9.14815523	      7.12335397	    -14.90034559	     23.58413480	     23.58413480	     17.95438620	     -5.08678740	     -0.79973474	     32.25330371	    -12.06161747	      1.29927252	     37.20474253	     37.20474253	      9.64456737	    -18.37587633	     15.43672573	    -11.24490120	      5.39755161	      1.79779916	     38.10658473	    -17.15400079	     -2.78744731	     65.42042037	     44.57182413	      0.00000000	      0.00000000	    -11.73017619	     -8.77022326	     10.21201788	     25.47235102	     44.68822771	      0.00000000	      0.00000000
     53.05400000	     -1.06130352	     -6.00504741	      3.31259284	      0.91579811	      0.92162111	      0.53522522	      8.42063289	      7.00435897	    -15.23662818	     22.50217978	     22.50217978	     17.86976260	     -4.65046829	     -0.74895000	     32.02581289	    -11.50670508	      1.77328876	     34.61840136	     34.61840136	      9.05615490	    -17.68717373	     15.04752905	    -10.99434689	      5.03067646	      2.24288636	     40.46559114	    -17.53933923	     -2.58646155	     66.99638223	     44.53352317	      0.00000000	      0.00000000	    -13.58236784	     -8.84890830	     10.39191644	     25.48030249	     44.62722296	      0.00000000	      0.00000000
     53.07357143	     -1.26280696	     -6.01530177	      3.74740726	      0.91500104	      0.92236084	      0.53323826	      7.66138187	      6.93967968	    -15.94435706	     21.33863502	     21.33863502	     17.65664497	     -3.71239273	     -1.47573124	     31.76181444	    -11.15165804	      2.13196109	     32.15454320	     32.15454320	      7.58964285	    -16.86780536	     11.69971706	    -10.73574292	      4.87003612	      2.44109011	     42.65039255	    -18.30530764	     -1.06928794	     69.76974954	     44.45163399	      0.00000000	      0.00000000	    -16.07352308	     -9.20187739	     11.02919577	     27.58634359	     44.49534438	      0.00000000	      0.00000000
